<svg width="40" height="40" viewBox="0 0 40 40" xmlns="http://www.w3.org/2000/svg"><title>icon-txt-m</title><g fill="none" fill-rule="evenodd"><path d="M0 0h40v40H0z"/><path d="M13 14.495c0-.273.22-.495.498-.495h13.004c.275 0 .498.216.498.495v2.01c0 .273-.22.495-.498.495H13.498a.493.493 0 0 1-.498-.495v-2.01zm0 5c0-.273.22-.495.498-.495h13.004c.275 0 .498.216.498.495v2.01c0 .273-.22.495-.498.495H13.498a.493.493 0 0 1-.498-.495v-2.01zm0 5c0-.273.22-.495.498-.495h13.004c.275 0 .498.216.498.495v2.01c0 .273-.22.495-.498.495H13.498a.493.493 0 0 1-.498-.495v-2.01z" fill="#C3C7CF"/></g></svg>