<svg width="40" height="40" viewBox="0 0 40 40" xmlns="http://www.w3.org/2000/svg"><title>icon-zip-m</title><g fill="none" fill-rule="evenodd"><path d="M0 0h40v40H0z"/><path d="M12 27V13c0-.555.448-1 1-1h14c.555 0 1 .448 1 1v14c0 .555-.448 1-1 1H13c-.555 0-1-.448-1-1zm6-15v1c0 .556.448 1 1 1h1v-2h-2zm0 5c0 .556.448 1 1 1h1v-2h-1c-.556 0-1 .448-1 1zm0 4c0 .556.448 1 1 1h1v-2h-1c-.556 0-1 .448-1 1zm0 4c0 .556.448 1 1 1h1v-2h-1c-.556 0-1 .448-1 1zm4 2c0-.552-.444-1-1-1h-1v2h2v-1zm0-4c0-.552-.444-1-1-1h-1v2h1c.552 0 1-.444 1-1zm0-8c0-.552-.444-1-1-1h-1v2h1c.552 0 1-.444 1-1zm0 4c0-.552-.444-1-1-1h-1v2h1c.552 0 1-.444 1-1z" fill="#4FB2FC"/></g></svg>