<svg width="40" height="40" viewBox="0 0 40 40" xmlns="http://www.w3.org/2000/svg"><title>icon-pdf-m</title><g fill="none" fill-rule="evenodd"><path d="M0 0h40v40H0z"/><path d="M16.76 11.426c0-2.994 3.58-3.261 4.471-.55.275.838.237 1.884-.016 3.19-.093.477-.211.973-.362 1.536.001-.005-.449 1.597-.49 1.809-.07.359-.254 1.006-.5 1.79-1.511-2.905-3.104-6.574-3.104-7.775zm11.405 9.782c2.75.762 2.27 5.034-.535 5.034-.99 0-2.088-.556-3.358-1.51-.788-.593-1.472-1.204-2.225-1.931l-.08-.087a5.616 5.616 0 0 1-.184-.24c2.973-.86 5.647-1.47 6.382-1.266zm-6.382 1.266c-.503-.69-1.202-1.896-1.92-3.274a92.728 92.728 0 0 1-1.488 4.324c1.12-.365 2.285-.726 3.408-1.05zm-3.408 1.05a64.46 64.46 0 0 1-.131.349l-.935-.355.974.226-.019.076c-.305 1.129-1.905 3.947-2.74 4.946-1.592 2.209-4.238 3.148-5.25 1.228-.785-1.486.118-3.012 1.812-4.03.668-.45 3.015-1.353 5.727-2.255a106.415 106.415 0 0 1 .562-.185zm.956-12.023c-.222-.676-.572-.65-.572-.075 0 .317.217.998.562 1.867.128-.804.132-1.42.01-1.792zm8.3 12.74c.435 0 .543-.956 0-1.106-.21-.059-.865.053-1.789.275.735.52 1.363.832 1.788.832zm-14.398 3.36l-.095.065c-.857.508-1.205 1.03-1.12 1.335.067 0 .168-.02.296-.065.502-.177 1.094-.655 1.63-1.395.096-.114.205-.26.323-.43-.53.215-.895.386-1.034.49zm3.102-4.31l.04-.129c.789-2.077 1.858-5.278 2.025-6.133.06-.306.55-2.056.521-1.945.14-.522.248-.974.33-1.4.027-.134.05-.265.07-.391 1.04 2.621 3.244 6.949 4.161 8.113.83.798 1.645 1.499 2.36 2.004-3.07.739-9.103 2.7-11.575 3.701.77-1.103 1.921-3.19 2.068-3.82z" fill="#F25D5D" fill-rule="nonzero"/></g></svg>