<svg width="40" height="40" viewBox="0 0 40 40" xmlns="http://www.w3.org/2000/svg"><title>icon-doc-m</title><g fill="none" fill-rule="evenodd"><path d="M40 0H0v40h40z"/><path d="M16.5 28h1.005a.678.678 0 0 0 .615-.479L20.5 18l2.38 9.521a.686.686 0 0 0 .53.472.5.5 0 0 0 .085.007h2.01a.5.5 0 0 0 .086-.007.686.686 0 0 0 .529-.472L30 12h-2.505a.678.678 0 0 0-.615.479L24.5 22l-2.38-9.521a.686.686 0 0 0-.53-.472.5.5 0 0 0-.085-.007h-2.01a.5.5 0 0 0-.086.007.686.686 0 0 0-.529.472L16.5 22l-2.38-9.521a.678.678 0 0 0-.615-.479H11l3.88 15.521a.678.678 0 0 0 .615.479H16.5z" fill="#5193EC"/></g></svg>