<svg width="40" height="40" viewBox="0 0 40 40" xmlns="http://www.w3.org/2000/svg"><title>icon-bt-m</title><g fill="none" fill-rule="evenodd"><path d="M0 0h40v40H0z"/><path d="M30.5 28H28c-1.657 0-3-1.342-3-2.997V21h-2v-3h2v-2h6v9h-1v3h.5zM28 21h2v-3h-2v-2h3v9h-2.001a.998.998 0 0 1-.999-.998V21zm-16 2.75V28h-2V12h2v3.75V12h4.5c2.485 0 4.5 2.02 4.5 4.5a4.47 4.47 0 0 1-.845 2.623A4.993 4.993 0 0 1 22 23c0 2.761-2.244 5-5 5h-5v-4.25zM13 21v4h4.002a2 2 0 0 0 0-4H13zm0-6v3h3.5c.826 0 1.5-.672 1.5-1.5 0-.834-.672-1.5-1.5-1.5H13z" fill="#FAA51E"/></g></svg>