<svg width="40" height="40" viewBox="0 0 40 40" xmlns="http://www.w3.org/2000/svg"><title>icon-nor-m</title><g fill="none" fill-rule="evenodd"><path d="M0 0h40v40H0z"/><path d="M12 27V13c0-.555.448-1 1-1h14c.555 0 1 .448 1 1v14c0 .555-.448 1-1 1H13c-.555 0-1-.448-1-1zm6.4-9.286c0-1.106.686-1.524 2-1.524 1.055 0 1.6.658 1.6 1.524 0 .345-.17.59-.707 1.04-.069.059-.351.29-.42.348-1.134.947-1.673 1.415-1.673 2.803h1.6c0-.87.307-.972 1.128-1.657l.423-.35c.85-.713 1.249-1.291 1.249-2.184 0-1.64-1.167-3.047-3.2-3.047-2.276 0-3.6 1.16-3.6 3.047h1.6zm.8 4.19v.382a.38.38 0 0 0 .371.38h.858c.2 0 .371-.17.371-.38v-.381h-1.6zm0 2.286a.76.76 0 0 0 .763.762h.074a.76.76 0 1 0 0-1.523h-.074a.76.76 0 0 0-.763.761zm-2.4-6.476v.381a.38.38 0 0 0 .371.381h.858c.2 0 .371-.17.371-.38v-.382h-1.6z" fill="#C3C7CF"/></g></svg>